<svg xmlns="http://www.w3.org/2000/svg" viewBox="0 0 60 60" enable-background="new 0 0 60 60"><g><path fill="#FBAB4B" d="M59.8 56.6c0 1.6-1.3 3-3 3H3.3c-1.6 0-3-1.3-3-3V3.2c0-1.6 1.3-3 3-3h53.4c1.6 0 3 1.3 3 3v53.4z"/><path fill="#E39947" d="M30.1 13.5c4.7 0 8.9 1.9 12.1 4.9l-3 2.5c-2.4-2.2-5.6-3.5-9.1-3.5-7.4 0-13.5 6-13.5 13.5s6 13.5 13.5 13.5c3.5 0 6.7-1.3 9.1-3.5l3 2.5c-3.1 3-7.4 4.9-12.1 4.9-9.6 0-17.4-7.8-17.4-17.4s7.8-17.4 17.4-17.4zm14.5 7.9l-3 2.5c1.2 2 1.9 4.4 1.9 6.9s-.7 4.9-1.9 6.9l3 2.5c1.8-2.7 2.8-6 2.8-9.5s-1-6.6-2.8-9.3z"/><path fill="#fff" d="M30.1 12.5c4.7 0 8.9 1.9 12.1 4.9l-3 2.5c-2.4-2.2-5.6-3.5-9.1-3.5-7.4 0-13.5 6-13.5 13.5s6 13.5 13.5 13.5c3.5 0 6.7-1.3 9.1-3.5l3 2.5c-3.1 3-7.4 4.9-12.1 4.9-9.6 0-17.4-7.8-17.4-17.4s7.8-17.4 17.4-17.4zm14.5 7.9l-3 2.5c1.2 2 1.9 4.4 1.9 6.9s-.7 4.9-1.9 6.9l3 2.5c1.8-2.7 2.8-6 2.8-9.5s-1-6.5-2.8-9.3z"/></g></svg>