<svg xmlns="http://www.w3.org/2000/svg" viewBox="0 0 60 60" enable-background="new 0 0 60 60"><path fill="#80C462" d="M59.8 56.6c0 1.6-1.3 3-3 3H3.3c-1.6 0-3-1.3-3-3V3.2c0-1.6 1.3-3 3-3h53.4c1.6 0 3 1.3 3 3v53.4z"/><path fill="#73AD51" d="M13.9 43.5l-2.3-3.6 10.8-17.2c.4-.6 1-.9 1.6-.9s1.3.3 1.6.9l4.2 6.7 7.4-11.8c.4-.6 1-.9 1.6-.9.7 0 1.3.3 1.6.9l5.8 9.2-2.2 3.5-5.1-8.2-7.4 11.8c-.4.6-1 .9-1.6.9-.7 0-1.3-.3-1.6-.9l-4.2-6.7-10.2 16.3z"/><path fill="#fff" d="M13.9 42.5l-2.3-3.6 10.8-17.2c.4-.6 1-.9 1.6-.9s1.3.3 1.6.9l4.2 6.7 7.4-11.8c.4-.6 1-.9 1.6-.9.7 0 1.3.3 1.6.9l5.8 9.2-2.2 3.5-5.1-8.2-7.4 11.8c-.4.6-1 .9-1.6.9-.7 0-1.3-.3-1.6-.9l-4.2-6.7-10.2 16.3z"/></svg>