<?xml version="1.0" encoding="utf-8"?>
<!-- Generator: Adobe Illustrator 17.1.0, SVG Export Plug-In . SVG Version: 6.00 Build 0)  -->
<!DOCTYPE svg PUBLIC "-//W3C//DTD SVG 1.1//EN" "http://www.w3.org/Graphics/SVG/1.1/DTD/svg11.dtd">
<svg version="1.1" id="Icon" xmlns="http://www.w3.org/2000/svg" xmlns:xlink="http://www.w3.org/1999/xlink" x="0px" y="0px"
	 viewBox="450 450 60 60" enable-background="new 450 450 60 60" xml:space="preserve">
<path fill="#64B4F3" d="M510,507c0,1.7-1.3,3-3,3h-54c-1.7,0-3-1.3-3-3v-54c0-1.7,1.3-3,3-3h54c1.7,0,3,1.3,3,3V507z"/>
<path fill="#52A4EE" d="M498,479.4L481.6,463c-1-1-2.5-1-3.4,0l-1.8,1.8l5,5l0,0l11.4,11.4L480.1,494l-13-13l10.4-10.4l-3.4-3.4
	L462,479.2c-0.5,0.5-0.7,1-0.7,1.7c0,0.6,0.2,1.3,0.7,1.7l16.4,16.4c0.5,0.5,1.1,0.7,1.7,0.7s1.2-0.2,1.7-0.7l16.2-16.2
	c0.5-0.5,0.7-1,0.7-1.7C498.8,480.4,498.5,479.9,498,479.4z"/>
<path fill="#FFFFFF" d="M498,478.4L481.6,462c-1-1-2.5-1-3.4,0l-1.8,1.8l5,5l0,0l11.4,11.4L480.1,493l-13-13l10.4-10.4l-3.4-3.4
	L462,478.2c-0.5,0.5-0.7,1-0.7,1.7c0,0.6,0.2,1.3,0.7,1.7l16.4,16.4c0.5,0.5,1.1,0.7,1.7,0.7s1.2-0.2,1.7-0.7l16.2-16.2
	c0.5-0.5,0.7-1,0.7-1.7C498.8,479.4,498.5,478.9,498,478.4z"/>
</svg>
