<?xml version="1.0" encoding="utf-8"?>
<!-- Generator: Adobe Illustrator 17.1.0, SVG Export Plug-In . SVG Version: 6.00 Build 0)  -->
<!DOCTYPE svg PUBLIC "-//W3C//DTD SVG 1.1//EN" "http://www.w3.org/Graphics/SVG/1.1/DTD/svg11.dtd">
<svg version="1.1" id="Icon" xmlns="http://www.w3.org/2000/svg" xmlns:xlink="http://www.w3.org/1999/xlink" x="0px" y="0px"
	 viewBox="450 450 60 60" enable-background="new 450 450 60 60" xml:space="preserve">
<g id="Open_logo">
	<g id="open_2_">
		<path fill="#FCDB51" d="M510,507c0,1.6-1.4,3-3,3h-54c-1.6,0-3-1.4-3-3v-54c0-1.6,1.4-3,3-3h54c1.6,0,3,1.4,3,3V507z"/>
		<g>
			<g>
				<path fill="#FFFFFF" d="M492.7,497.3c-0.1,0-0.2,0-0.3,0l-25.4-3.8c-1-0.1-1.7-1-1.7-2v-22.9c0-1,0.7-1.8,1.7-2l25.4-3.8
					c0.6-0.1,1.1,0.1,1.6,0.5c0.4,0.4,0.7,0.9,0.7,1.5v30.6c0,0.6-0.3,1.1-0.7,1.5C493.6,497.1,493.2,497.3,492.7,497.3z
					 M469.3,489.8l21.5,3.2v-26l-21.5,3.2V489.8z"/>
			</g>
		</g>
	</g>
</g>
</svg>
